<svg xmlns="http://www.w3.org/2000/svg" xmlns:xlink="http://www.w3.org/1999/xlink" version="1.1" width="256" height="256" viewBox="0 0 256 256" xml:space="preserve">

<defs>
</defs>
<g style="stroke: none; stroke-width: 0; stroke-dasharray: none; stroke-linecap: butt; stroke-linejoin: miter; stroke-miterlimit: 10; fill: none; fill-rule: nonzero; opacity: 1;" transform="translate(254.59340659340654 254.59340659340654) rotate(180) scale(2.81 2.81)" >
	<path d="M 50.619 31.076 C 39.471 33.628 27.781 43.6 27.781 55.522 l 3.371 18.432 h 38.934 V 55.522 C 70.086 43.6 61.766 33.628 50.619 31.076 z" style="stroke: none; stroke-width: 1; stroke-dasharray: none; stroke-linecap: butt; stroke-linejoin: miter; stroke-miterlimit: 10; fill: rgb(251,66,57); fill-rule: nonzero; opacity: 1;" transform=" matrix(1 0 0 1 0 0) " stroke-linecap="round" />
	<path d="M 50.619 31.076 c -1.807 -0.414 -3.686 -0.64 -5.619 -0.64 c -13.854 0 -25.086 11.231 -25.086 25.086 v 18.432 h 11.237 V 55.522 C 31.152 43.6 39.471 33.628 50.619 31.076 z" style="stroke: none; stroke-width: 1; stroke-dasharray: none; stroke-linecap: butt; stroke-linejoin: miter; stroke-miterlimit: 10; fill: rgb(226,23,23); fill-rule: nonzero; opacity: 1;" transform=" matrix(1 0 0 1 0 0) " stroke-linecap="round" />
	<path d="M 73.61 73.954 H 28.824 v 13.916 h 48.618 V 77.786 C 77.442 75.669 75.727 73.954 73.61 73.954 z" style="stroke: none; stroke-width: 1; stroke-dasharray: none; stroke-linecap: butt; stroke-linejoin: miter; stroke-miterlimit: 10; fill: rgb(68,187,125); fill-rule: nonzero; opacity: 1;" transform=" matrix(1 0 0 1 0 0) " stroke-linecap="round" />
	<path d="M 31.072 79.637 v -5.683 H 16.39 c -2.116 0 -3.832 1.716 -3.832 3.832 v 8.382 c 0 2.116 1.716 3.832 3.832 3.832 h 57.22 c 2.116 0 3.832 -1.716 3.832 -3.832 v -0.546 H 37.057 C 33.752 85.622 31.072 82.942 31.072 79.637 z" style="stroke: none; stroke-width: 1; stroke-dasharray: none; stroke-linecap: butt; stroke-linejoin: miter; stroke-miterlimit: 10; fill: rgb(68,187,125); fill-rule: nonzero; opacity: 1;" transform=" matrix(1 0 0 1 0 0) " stroke-linecap="round" />
	<path d="M 45 18.246 c -1.104 0 -2 -0.896 -2 -2 V 2 c 0 -1.104 0.896 -2 2 -2 s 2 0.896 2 2 v 14.246 C 47 17.351 46.104 18.246 45 18.246 z" style="stroke: none; stroke-width: 1; stroke-dasharray: none; stroke-linecap: butt; stroke-linejoin: miter; stroke-miterlimit: 10; fill: rgb(251,66,57); fill-rule: nonzero; opacity: 1;" transform=" matrix(1 0 0 1 0 0) " stroke-linecap="round" />
	<path d="M 20.111 28.555 c -0.512 0 -1.024 -0.195 -1.414 -0.586 L 8.624 17.896 c -0.781 -0.781 -0.781 -2.047 0 -2.828 c 0.78 -0.781 2.048 -0.781 2.828 0 l 10.073 10.073 c 0.781 0.781 0.781 2.047 0 2.828 C 21.135 28.36 20.623 28.555 20.111 28.555 z" style="stroke: none; stroke-width: 1; stroke-dasharray: none; stroke-linecap: butt; stroke-linejoin: miter; stroke-miterlimit: 10; fill: rgb(251,66,57); fill-rule: nonzero; opacity: 1;" transform=" matrix(1 0 0 1 0 0) " stroke-linecap="round" />
	<path d="M 69.889 28.555 c -0.512 0 -1.023 -0.195 -1.414 -0.586 c -0.781 -0.781 -0.781 -2.047 0 -2.828 l 10.073 -10.073 c 0.781 -0.781 2.047 -0.781 2.828 0 c 0.781 0.781 0.781 2.047 0 2.828 L 71.303 27.969 C 70.912 28.36 70.4 28.555 69.889 28.555 z" style="stroke: none; stroke-width: 1; stroke-dasharray: none; stroke-linecap: butt; stroke-linejoin: miter; stroke-miterlimit: 10; fill: rgb(251,66,57); fill-rule: nonzero; opacity: 1;" transform=" matrix(1 0 0 1 0 0) " stroke-linecap="round" />
	<path d="M 45 52.515 L 45 52.515 c -3.297 0 -5.969 2.673 -5.969 5.969 v 15.47 h 11.939 v -15.47 C 50.969 55.187 48.297 52.515 45 52.515 z" style="stroke: none; stroke-width: 1; stroke-dasharray: none; stroke-linecap: butt; stroke-linejoin: miter; stroke-miterlimit: 10; fill: rgb(254,192,7); fill-rule: nonzero; opacity: 1;" transform=" matrix(1 0 0 1 0 0) " stroke-linecap="round" />
</g>
</svg>