<svg width="65" height="64" viewBox="0 0 65 64" fill="none" xmlns="http://www.w3.org/2000/svg">
<path d="M39.1076 51.0138C44.5471 48.5389 48.3221 43.1191 48.3221 36.8318V21.2988C48.3221 19.8088 47.0956 18.6012 45.5824 18.6012H39.5242H25.3974H19.345C17.8317 18.6012 16.6052 19.8088 16.6052 21.2988V36.8318C16.6052 43.1198 20.3802 48.5396 25.8198 51.0145L39.1076 51.0138Z" fill="#4FB06A"/>
<path d="M32.4635 43.3833C30.0434 43.3833 27.7232 42.6007 25.821 41.2273V57.0898C25.821 60.6578 28.7855 63.5766 32.4093 63.5766H32.5177C36.1415 63.5766 39.106 60.6578 39.106 57.0898V41.2273C37.2039 42.6007 34.8836 43.3833 32.4635 43.3833Z" fill="#2A466F"/>
<path d="M36.4698 34.8304H28.4574C27.8659 34.8304 27.3872 34.359 27.3872 33.7766C27.3872 33.1942 27.8659 32.7229 28.4574 32.7229H36.4698C37.0605 32.7229 37.54 33.1942 37.54 33.7766C37.54 34.359 37.0605 34.8304 36.4698 34.8304Z" fill="#E1E7F1"/>
<path d="M51.0197 7.29305H42.4559C40.9875 3.25016 37.0748 0.351648 32.4636 0.351648C27.8524 0.351648 23.9397 3.25016 22.4714 7.29305H13.9075C12.2401 7.29305 10.876 8.63623 10.876 10.278V11.3395C10.876 12.9812 12.2401 14.3244 13.9075 14.3244H22.4714C23.9397 18.3673 27.8524 21.2658 32.4636 21.2658C37.0748 21.2658 40.9875 18.3673 42.4559 14.3244H51.0197C52.6871 14.3244 54.0513 12.9812 54.0513 11.3395V10.278C54.0513 8.63623 52.6871 7.29305 51.0197 7.29305Z" fill="#5786CC"/>
<path d="M32.4601 15.3851C35.0273 15.3851 37.1084 13.3361 37.1084 10.8084C37.1084 8.28067 35.0273 6.23157 32.4601 6.23157C29.8929 6.23157 27.8118 8.28067 27.8118 10.8084C27.8118 13.3361 29.8929 15.3851 32.4601 15.3851Z" fill="#E1E7F1"/>
<path d="M32.4637 44.0858C28.4675 44.0858 24.7367 41.9635 22.7269 38.5466C22.4301 38.0429 22.6049 37.398 23.1164 37.1064C23.6287 36.8149 24.283 36.9863 24.5791 37.49C26.2079 40.2579 29.2295 41.9783 32.4637 41.9783C35.6986 41.9783 38.7202 40.2586 40.3483 37.49C40.6451 36.9856 41.2994 36.8142 41.811 37.1064C42.3225 37.398 42.4966 38.0429 42.2005 38.5466C40.1907 41.9628 36.4599 44.0858 32.4637 44.0858Z" fill="#E1E7F1"/>
</svg>
