<svg width="63" height="61" viewBox="0 0 63 61" fill="none" xmlns="http://www.w3.org/2000/svg">
<path d="M28.8699 44.4792C28.0083 44.4792 27.2106 44.1123 26.7728 43.5149L24.1026 39.8769C18.6198 32.4112 13.4421 25.3599 11.6732 22.4999C10.3871 20.3756 9.73981 18.1075 9.73981 15.7444C9.73981 7.24762 18.3214 0.335159 28.8699 0.335159C39.4184 0.335159 48 7.24762 48 15.7444C48 18.1061 47.3527 20.3736 46.0776 22.4842C46.0624 22.5097 46.0453 22.5352 46.0289 22.5602C44.2259 25.4585 39.081 32.4646 33.6354 39.8789L30.9671 43.5149C30.5292 44.1123 29.7315 44.4792 28.8699 44.4792Z" fill="#22C1C3"/>
<path d="M28.8699 4.60241C21.6139 4.60241 15.7104 9.35721 15.7104 15.2019C15.7104 21.0465 21.6139 25.8013 28.8699 25.8013C36.1253 25.8013 42.0289 21.0465 42.0289 15.2019C42.0289 9.35721 36.1253 4.60241 28.8699 4.60241Z" fill="#F9F9F9"/>
<path d="M19.1788 16.6733H14.8128C13.8038 16.6733 12.986 16.0146 12.986 15.2019C12.986 14.3891 13.8038 13.7304 14.8128 13.7304H19.1788C20.1878 13.7304 21.0056 14.3891 21.0056 15.2019C21.0056 16.0146 20.1878 16.6733 19.1788 16.6733Z" fill="#22C1C3"/>
<path d="M42.9271 16.6733H38.561C37.552 16.6733 36.7343 16.0146 36.7343 15.2019C36.7343 14.3891 37.552 13.7304 38.561 13.7304H42.9271C43.936 13.7304 44.7538 14.3891 44.7538 15.2019C44.7538 16.0146 43.936 16.6733 42.9271 16.6733Z" fill="#22C1C3"/>
<path d="M28.8699 27.9968C27.8609 27.9968 27.0431 27.338 27.0431 26.5253V23.008C27.0431 22.1953 27.8609 21.5365 28.8699 21.5365C29.8789 21.5365 30.6967 22.1953 30.6967 23.008V26.5253C30.6967 27.338 29.8789 27.9968 28.8699 27.9968Z" fill="#22C1C3"/>
<path d="M28.8699 8.8677C27.8609 8.8677 27.0431 8.20897 27.0431 7.39623V3.87943C27.0431 3.06669 27.8609 2.40796 28.8699 2.40796C29.8789 2.40796 30.6967 3.06669 30.6967 3.87943V7.39623C30.6967 8.20848 29.8789 8.8677 28.8699 8.8677Z" fill="#22C1C3"/>
<path d="M28.8699 13.2399C27.5266 13.2399 26.4342 14.1199 26.4342 15.2019C26.4342 16.2839 27.5266 17.1638 28.8699 17.1638C30.2126 17.1638 31.3056 16.2839 31.3056 15.2019C31.3056 14.1204 30.2126 13.2399 28.8699 13.2399Z" fill="#22C1C3"/>
</svg>
