<svg width="39" height="28" viewBox="0 0 39 28" fill="none" xmlns="http://www.w3.org/2000/svg">
<path d="M22.1715 21.6246H20.5664C20.5664 17.4108 16.407 13.9826 11.2943 13.9826C6.18157 13.9826 2.02237 17.4108 2.02237 21.6246H0.416992C0.416992 16.6812 5.29661 12.6597 11.2943 12.6597C17.2922 12.6597 22.1715 16.6812 22.1715 21.6246Z" fill="black"/>
<path d="M11.2943 12.1368C7.90338 12.1368 5.14478 9.86314 5.14478 7.06838C5.14478 4.27362 7.90338 2 11.2943 2C14.6849 2 17.4438 4.27362 17.4438 7.06838C17.4438 9.86314 14.6849 12.1368 11.2943 12.1368ZM11.2943 3.32292C8.78861 3.32292 6.75015 5.003 6.75015 7.06816C6.75015 9.13333 8.78861 10.8136 11.2943 10.8136C13.8 10.8136 15.8384 9.13354 15.8384 7.06816C15.8384 5.00322 13.8 3.32292 11.2943 3.32292Z" fill="black"/>
<path d="M31.3368 7.876L27.7948 9.68V8.514L31.4028 6.6H32.5468V22H31.3368V7.876Z" fill="black"/>
</svg>
